<?xml version="1.0" encoding="UTF-8"?>
<!--Generator: Apple Native CoreSVG 341-->
<!DOCTYPE svg
PUBLIC "-//W3C//DTD SVG 1.1//EN"
       "http://www.w3.org/Graphics/SVG/1.1/DTD/svg11.dtd">
<svg version="1.1" xmlns="http://www.w3.org/2000/svg" xmlns:xlink="http://www.w3.org/1999/xlink" viewBox="0 0 91.8398 91.79">
 <g>
  <path d="M0 26.4463L8.01855 26.4463C8.16797 20.5195 9.81152 15.9873 12.9492 12.8994C15.8877 9.96094 20.4697 8.21777 26.2471 8.01855L26.2471 0C17.9297 0.199219 11.3555 2.68945 7.02246 7.02246C2.54004 11.4551 0.149414 18.0293 0 26.4463ZM58.7695 8.01855L58.7695 0L33.0703 0L33.0703 8.01855ZM83.8213 26.4463L91.8398 26.4463C91.6904 18.0293 89.2998 11.4551 84.7676 7.02246C80.3848 2.63965 73.9102 0.199219 65.543 0L65.543 8.01855C71.3701 8.21777 75.9023 9.91113 78.8906 12.8994C82.0283 15.9873 83.6719 20.5195 83.8213 26.4463ZM83.8213 58.5703L91.8398 58.5703L91.8398 33.2695L83.8213 33.2695ZM65.543 91.79C73.9102 91.5908 80.4346 89.1504 84.7676 84.7676C89.2998 80.335 91.6406 73.8105 91.8398 65.3438L83.8213 65.3438C83.6719 71.3203 82.0283 75.8027 78.8906 78.8906C75.9023 81.8789 71.3701 83.5723 65.543 83.7715ZM58.7695 91.79L58.7695 83.7715L33.0703 83.7715L33.0703 91.79ZM26.2471 91.79L26.2471 83.7715C20.4697 83.5723 15.9375 81.8789 12.9492 78.8906C9.81152 75.8027 8.11816 71.3203 8.01855 65.3438L0 65.3438C0.149414 73.8105 2.54004 80.2852 7.02246 84.7676C11.4053 89.1006 17.9297 91.5908 26.2471 91.79ZM0 58.5703L8.01855 58.5703L8.01855 33.2695L0 33.2695Z" fill="black" fill-opacity="0.85"/>
  <path d="M27.9404 65.4932C27.9404 69.2285 29.584 70.9717 33.0205 70.9717L58.8193 70.9717C62.3057 70.9717 63.9492 69.2285 63.9492 65.4932L63.9492 45.6709C63.9492 42.1846 62.5049 40.4912 59.5166 40.292L59.5166 34.3652C59.5166 25.2012 54.0381 19.0752 45.9199 19.0752C37.8516 19.0752 32.3232 25.2012 32.3232 34.3652L32.3232 40.292C29.3848 40.4912 27.9404 42.1846 27.9404 45.6709ZM37.5029 40.2422L37.5029 33.8174C37.5029 27.9902 40.8896 24.1055 45.9199 24.1055C51 24.1055 54.3369 27.9902 54.3369 33.8174L54.3369 40.2422Z" fill="black" fill-opacity="0.85"/>
 </g>
</svg>
