<?xml version="1.0" standalone="no"?>
<!DOCTYPE svg PUBLIC "-//W3C//DTD SVG 20010904//EN" "http://www.w3.org/TR/2001/REC-SVG-20010904/DTD/svg10.dtd">
<svg xmlns="http://www.w3.org/2000/svg" version="1.0" width="1024.000000pt" height="1024.000000pt" viewBox="0 0 1024.000000 1024.000000" preserveAspectRatio="xMidYMid meet">
<g transform="translate(0.000000,1024.000000) scale(0.100000,-0.100000)" fill="#000000" stroke="none">
<path d="M4796 8470 c-132 -24 -319 -85 -441 -144 -448 -218 -791 -652 -920 -1165 -38 -149 -45 -263 -45 -743 l0 -468 -118 0 c-153 0 -218 -12 -321 -62 -115 -55 -204 -144 -259 -259 -22 -46 -45 -108 -51 -137 -8 -37 -11 -489 -11 -1480 0 -1584 -4 -1490 68 -1626 79 -151 240 -268 415 -301 115 -22 3900 -22 4022 0 221 39 399 208 462 436 17 60 18 155 18 1489 0 1330 -1 1429 -18 1490 -30 111 -75 188 -158 272 -126 128 -259 177 -476 178 l-111 0 -5 503 c-3 292 -10 529 -16 567 -123 727 -645 1289 -1342 1441 -89 19 -138 23 -344 25 -203 3 -257 0 -349 -16z m599 -674 c192 -50 376 -157 513 -300 121 -127 192 -241 245 -396 54 -160 57 -192 57 -695 l0 -465 -1095 0 -1095 0 0 423 c0 435 6 538 41 667 26 98 115 277 178 361 138 182 352 328 576 394 180 52 403 57 580 11z m-140 -2701 c143 -37 260 -117 339 -232 123 -180 137 -398 39 -593 -41 -82 -126 -179 -199 -226 l-52 -33 14 -68 c33 -170 156 -892 157 -922 1 -24 -6 -39 -22 -52 -22 -18 -47 -19 -408 -19 -231 0 -392 4 -403 10 -43 23 -41 43 41 535 43 259 80 481 83 495 4 22 -2 30 -39 53 -114 73 -220 230 -250 372 -19 90 -19 138 1 232 44 216 217 396 430 447 79 19 197 19 269 1z"/>
</g>
</svg>
