<?xml version="1.0" encoding="UTF-8"?>
<!--Generator: Apple Native CoreSVG 341-->
<!DOCTYPE svg
PUBLIC "-//W3C//DTD SVG 1.1//EN"
       "http://www.w3.org/Graphics/SVG/1.1/DTD/svg11.dtd">
<svg version="1.1" xmlns="http://www.w3.org/2000/svg" xmlns:xlink="http://www.w3.org/1999/xlink" viewBox="0 0 101.536 94.2395">
 <g>
  <path d="M4.25035 38.13C-2.6227 41.3175-0.730123 50.5313 6.84019 50.5812L43.1478 50.7306C43.7455 50.7306 43.8949 50.88 43.8949 51.4776L43.9945 87.4864C44.0443 95.3556 53.4076 96.7501 56.7445 89.5284L93.5502 10.3888C96.9369 3.01768 91.1595-2.21181 83.8382 1.22471ZM12.9164 42.8116C12.7171 42.8116 12.6673 42.6124 12.9164 42.5128L84.4857 9.74131C84.8343 9.5919 84.9837 9.69151 84.8343 10.0899L51.8636 81.6095C51.8138 81.8087 51.6146 81.7589 51.6146 81.5597L51.8636 46.3478C51.8636 44.1563 50.3197 42.6124 48.0785 42.6124Z" fill="black" fill-opacity="0.85"/>
 </g>
</svg>
